<svg xmlns="http://www.w3.org/2000/svg" viewBox="0 0 634 654"><defs><style>.cls-1{fill:#f5f5f5;}.cls-2{fill:#e0e0e0;}</style></defs><title>Asset 1</title><g id="Layer_2" data-name="Layer 2"><g id="Layer_1-2" data-name="Layer 1"><path class="cls-1" d="M634,327C634,146.4,492.07,0,317,0S0,146.4,0,327c0,95.24,39.48,181,102.47,240.72-.3-3.88-.47-7.78-.47-11.72,0-99.41,96.48-180,215.5-180S533,456.59,533,556c0,3.59-.14,7.15-.39,10.68C595,507,634,421.69,634,327Z"/><path class="cls-2" d="M317.5,376c-119,0-215.5,80.59-215.5,180,0,3.94.17,7.84.47,11.72C158.92,621.28,234.25,654,317,654c83.28,0,159-33.14,215.61-87.32.25-3.53.39-7.09.39-10.68C533,456.59,436.52,376,317.5,376Z"/><circle class="cls-2" cx="317" cy="229" r="125.5"/></g></g></svg>